<svg version="1.1" id="Layer_1" xmlns="http://www.w3.org/2000/svg" xmlns:xlink="http://www.w3.org/1999/xlink" x="0px" y="0px"
	 width="100%" viewBox="0 0 977 345" enable-background="new 0 0 977 345" xml:space="preserve">
<path fill="#FFFFFF" opacity="1.000000" stroke="none" 
	d="
M890.023804,333.021240 
	C878.528870,335.694611 867.540466,338.974701 856.315918,340.810486 
	C846.633057,342.394104 836.653259,343.165649 826.853943,342.835846 
	C802.554138,342.018066 778.968079,337.796631 757.566406,325.174652 
	C741.801758,315.877197 729.865662,302.943359 720.718445,287.263611 
	C711.351013,271.206482 705.982544,253.653870 703.220642,235.494354 
	C701.154175,221.907349 700.334412,208.038589 700.136475,194.278336 
	C699.697998,163.788834 700.110901,133.287857 699.888184,102.793663 
	C699.852112,97.851128 698.896545,92.737633 697.368835,88.026527 
	C695.234619,81.445251 690.537415,76.804298 684.080444,73.926620 
	C682.142029,73.062706 680.610352,71.286072 678.760071,69.823006 
	C677.514221,70.082886 675.492554,71.036346 673.616821,70.805260 
	C664.763062,69.714508 655.984924,67.607185 647.113464,67.149666 
	C630.556641,66.295792 613.930725,65.649048 597.377441,66.210472 
	C583.432495,66.683434 569.754150,68.968895 559.178467,80.133003 
	C549.538025,90.309830 550.089233,105.979584 559.168945,115.653473 
	C567.590210,124.625893 578.617432,129.281952 589.612610,134.018936 
	C608.415283,142.119583 627.603516,149.470840 645.840881,158.696518 
	C663.733276,167.747742 678.610413,180.909622 687.965881,199.203918 
	C693.453247,209.934341 696.774109,221.373428 696.980713,233.530975 
	C697.211731,247.119751 697.095703,260.550232 692.180237,273.685394 
	C686.038635,290.097229 676.474792,303.599030 662.930542,314.717926 
	C646.111755,328.524963 626.518311,336.009277 605.623840,339.717255 
	C591.965454,342.141113 577.862488,342.227539 563.936646,342.916565 
	C554.959839,343.360779 545.941101,342.875244 536.945007,343.030426 
	C524.692017,343.241730 512.443604,343.797302 500.191071,343.875519 
	C498.070923,343.889038 495.940338,342.268555 493.289368,341.188965 
	C493.300537,341.144928 492.985870,342.385071 492.613373,343.853333 
	C491.775208,343.897247 490.795776,343.993195 489.816315,343.993439 
	C456.654205,344.001282 423.466949,344.799835 390.337494,343.759613 
	C361.200714,342.844727 333.018677,336.381256 307.219757,321.987610 
	C279.519409,306.533173 258.975189,284.340118 245.886032,255.406815 
	C239.426834,241.128876 234.772293,226.263474 233.041779,210.627899 
	C232.122925,202.325912 231.512680,193.981750 231.028290,185.641220 
	C229.495117,159.242706 233.520844,133.699020 242.956497,108.980217 
	C248.692062,93.954674 256.545471,80.223251 266.702698,67.727287 
	C277.898712,53.953350 290.997131,42.452675 305.982574,32.968124 
	C322.589386,22.457390 340.665894,15.587844 359.655548,11.061968 
	C373.325195,7.804042 387.196838,5.789735 401.332367,5.969654 
	C412.999634,6.118156 424.711212,5.378445 436.329926,6.144056 
	C454.263306,7.325770 471.856628,10.736818 488.484161,17.935472 
	C494.958618,20.738510 501.227478,24.013229 507.656769,26.925589 
	C510.076691,28.021776 511.638092,29.067024 509.543091,32.238106 
	C510.587646,31.764303 511.763733,31.464811 512.657227,30.790730 
	C527.707886,19.436262 544.745178,12.873248 563.075073,8.915608 
	C586.905457,3.770339 611.051636,4.309102 635.044067,5.311206 
	C654.006775,6.103229 673.062317,8.620810 691.693848,12.306763 
	C711.165649,16.158957 729.622559,23.789368 745.081787,36.749866 
	C760.096985,49.338192 770.082764,65.300552 772.902832,84.994194 
	C774.154785,93.736839 774.843689,102.629364 774.908386,111.460289 
	C775.141479,143.287552 774.725891,175.120880 775.111572,206.945160 
	C775.314941,223.725937 778.338806,240.065750 786.541443,255.102081 
	C795.408630,271.356689 808.633911,280.401489 827.360901,282.188904 
	C838.349792,283.237732 848.688477,281.899536 858.588135,277.671143 
	C872.387268,271.777161 880.791626,260.635925 885.940918,246.934158 
	C890.899719,233.739410 893.038269,220.019867 893.025330,205.907013 
	C892.967163,142.249130 893.058960,78.591011 892.886047,14.933542 
	C892.872498,9.944592 894.440186,8.854486 899.118225,8.899902 
	C921.913147,9.121205 944.711365,9.000000 968.000000,9.000000 
	C968.000000,10.901459 968.000000,12.510559 968.000000,14.119658 
	C968.000000,78.444168 968.610962,142.776962 967.739197,207.089645 
	C967.311035,238.674713 959.791870,269.069641 940.815857,295.166901 
	C929.485474,310.749207 915.006287,323.171356 896.545837,330.157379 
	C894.448242,330.951172 892.464478,332.045868 890.023804,333.021240 
M480.021667,282.000824 
	C506.844604,282.000549 533.669189,282.170990 560.489563,281.908173 
	C569.985657,281.815125 579.611877,281.455078 588.925903,279.797028 
	C600.312805,277.769958 610.984741,273.427307 617.070374,262.428223 
	C626.246948,245.842590 619.930115,227.752762 603.589233,217.830276 
	C590.001404,209.579498 575.068726,204.757111 560.479126,198.963913 
	C535.970154,189.231918 512.678162,177.660583 495.219574,156.828156 
	C483.354370,142.670120 476.773529,126.472160 476.222626,108.236450 
	C475.944916,99.043991 478.013733,89.783058 478.962250,80.547005 
	C479.047577,79.716423 478.696564,78.841034 478.324738,76.699265 
	C477.212891,78.971222 476.672577,80.075294 476.143707,81.156029 
	C475.248657,80.944260 474.716553,80.933937 474.306824,80.704788 
	C458.143890,71.665222 440.303772,68.649460 422.275848,67.179619 
	C410.031555,66.181320 397.733307,67.073067 385.562286,69.887398 
	C364.818085,74.684120 346.941071,83.816216 332.983276,100.382637 
	C316.562592,119.872246 310.599457,142.926468 309.119904,167.540009 
	C308.677002,174.907974 309.660950,182.362289 310.001099,189.776581 
	C310.600800,202.849365 313.951843,215.298843 319.579865,226.995590 
	C331.250732,251.251083 350.478882,266.874176 375.987335,275.033264 
	C391.642090,280.040527 407.757385,281.839874 424.092163,281.972198 
	C439.918335,282.100433 455.747101,281.929016 471.572754,282.085236 
	C473.670135,282.105957 475.756134,283.282684 477.905060,283.941681 
	C478.043549,283.724762 478.589722,282.869415 480.021667,282.000824 
z"/>
<path fill="#FFFFFF" opacity="1.000000" stroke="none" 
	d="
M247.000000,10.000000 
	C256.590118,10.000000 265.680267,10.000000 275.650635,10.000000 
	C269.906616,17.474741 264.735931,24.239328 259.526733,30.974155 
	C250.690872,42.397800 241.862762,53.827698 232.972351,65.208847 
	C222.868027,78.144020 212.656876,90.995850 202.570053,103.944588 
	C192.996109,116.234932 183.522324,128.603317 174.012802,140.943787 
	C173.924515,141.058365 173.997101,141.291000 173.915451,141.417450 
	C171.705032,144.841293 167.830322,148.213837 167.736588,151.689423 
	C167.645294,155.074707 171.407730,158.572693 173.501892,162.006714 
	C187.653152,185.212021 201.840134,208.395599 215.957901,231.621246 
	C229.734283,254.285248 243.469269,276.974548 257.169342,299.684723 
	C264.876312,312.460327 272.475922,325.300659 280.469635,338.691040 
	C278.698334,338.821381 277.484741,338.987915 276.271088,338.988617 
	C250.278183,339.003601 224.284561,338.905029 198.293182,339.104309 
	C194.482162,339.133545 192.756073,337.493835 191.086609,334.552551 
	C179.587021,314.292328 167.924347,294.124695 156.416275,273.869263 
	C147.527771,258.224579 138.828476,242.472443 129.966995,226.812271 
	C124.514687,217.176834 118.915565,207.624512 113.168243,197.663757 
	C104.716667,208.123688 96.279495,218.342026 88.169365,228.813644 
	C86.743805,230.654266 86.098907,233.553513 86.089035,235.967957 
	C85.956207,268.458527 86.000000,300.949860 86.000000,333.440979 
	C86.000000,335.090393 86.000000,336.739807 86.000000,338.694092 
	C61.420708,338.694092 37.019474,338.694092 12.308597,338.694092 
	C12.308597,229.440399 12.308597,120.056198 12.308597,10.335905 
	C36.518387,10.335905 60.920158,10.335905 85.684731,10.335905 
	C85.684731,57.515163 85.684731,104.917419 85.684731,152.319672 
	C86.079590,152.524551 86.474457,152.729416 86.869316,152.934296 
	C89.428879,149.276321 92.063316,145.668152 94.535576,141.952087 
	C108.369354,121.158455 122.094467,100.292221 135.991226,79.540878 
	C150.252991,58.244511 164.715790,37.082775 178.977600,15.786440 
	C181.701096,11.719622 184.700485,9.727731 190.019424,9.842208 
	C208.838684,10.247252 227.672012,10.000000 247.000000,10.000000 
z"/>
</svg>